<?xml version="1.0" encoding="UTF-8" standalone="no"?>
<svg
   xmlns:dc="http://purl.org/dc/elements/1.1/"
   xmlns:cc="http://creativecommons.org/ns#"
   xmlns:rdf="http://www.w3.org/1999/02/22-rdf-syntax-ns#"
   xmlns:svg="http://www.w3.org/2000/svg"
   xmlns="http://www.w3.org/2000/svg"
   xmlns:sodipodi="http://sodipodi.sourceforge.net/DTD/sodipodi-0.dtd"
   xmlns:inkscape="http://www.inkscape.org/namespaces/inkscape"
   version="1.1"
   id="svg2"
   xml:space="preserve"
   width="529.1333"
   height="264.57333"
   viewBox="0 0 529.1333 264.57333"
   sodipodi:docname="Altrad-rugby_logo_White.eps"><metadata
     id="metadata8"><rdf:RDF><cc:Work
         rdf:about=""><dc:format>image/svg+xml</dc:format><dc:type
           rdf:resource="http://purl.org/dc/dcmitype/StillImage" /></cc:Work></rdf:RDF></metadata><defs
     id="defs6" /><sodipodi:namedview
     pagecolor="#ffffff"
     bordercolor="#666666"
     borderopacity="1"
     objecttolerance="10"
     gridtolerance="10"
     guidetolerance="10"
     inkscape:pageopacity="0"
     inkscape:pageshadow="2"
     inkscape:window-width="640"
     inkscape:window-height="480"
     id="namedview4" /><g
     id="g10"
     inkscape:groupmode="layer"
     inkscape:label="ink_ext_XXXXXX"
     transform="matrix(1.3333333,0,0,-1.3333333,0,264.57333)"><g
       id="g12"
       transform="scale(0.1)"><path
         d="M 538.754,235.52 C 567.055,160.719 595.367,80.8516 618.609,0 H 780.34 C 696.441,223.398 610.52,449.789 534.715,674.211 H 351.754 C 239.566,447.789 121.301,221.359 0,0 h 166.781 c 36.391,79.8594 73.793,160.719 112.199,235.52 z M 323.457,342.672 433.637,568.07 511.469,342.672 Z"
         style="fill:#ffffff;fill-opacity:1;fill-rule:nonzero;stroke:none"
         id="path14" /><path
         d="M 1313.01,0 H 840.973 c 22.242,224.398 31.328,448.789 34.367,674.211 h 157.68 c -4.04,-59.641 -24.26,-437.68 -28.3,-567.063 h 122.3 c 64.7,0 129.38,0 193.07,3.043 L 1313.01,0"
         style="fill:#ffffff;fill-opacity:1;fill-rule:nonzero;stroke:none"
         id="path16" /><path
         d="M 1845.86,674.211 1841.81,562 c -62.67,4.039 -124.32,5.051 -210.24,5.051 C 1621.46,396.23 1611.35,220.352 1610.34,0 h -157.68 c 14.15,168.801 23.25,374 29.31,567.051 -147.57,0 -164.76,-3.012 -211.26,-4.039 l 4.05,111.199 h 571.1"
         style="fill:#ffffff;fill-opacity:1;fill-rule:nonzero;stroke:none"
         id="path18" /><path
         d="m 2443.23,0 h -162.74 c -48.52,128.371 -113.21,249.672 -172.85,372.98 20.22,-3.019 40.44,-6.058 60.65,-6.058 76.82,0 149.6,34.359 149.6,120.277 0,78.84 -71.77,87.942 -132.41,87.942 -36.4,0 -71.76,-2.02 -108.16,-5.051 -3.04,-87.942 -15.16,-469 -16.17,-570.09 h -152.63 c 22.24,223.398 29.31,448.789 30.32,674.211 h 304.25 c 117.26,0 219.35,-41.461 219.35,-167.813 0,-118.257 -78.85,-176.878 -186,-198.109 L 2443.23,0"
         style="fill:#ffffff;fill-opacity:1;fill-rule:nonzero;stroke:none"
         id="path20" /><path
         d="M 2996.11,235.52 C 3024.41,160.719 3052.72,80.8516 3075.96,0 h 161.74 c -83.89,223.398 -169.82,449.789 -245.63,674.211 H 2809.13 C 2696.93,447.789 2578.66,221.359 2457.36,0 h 166.8 c 36.37,79.8594 73.77,160.719 112.18,235.52 z M 2780.82,342.672 2891,568.07 2968.83,342.672 Z"
         style="fill:#ffffff;fill-opacity:1;fill-rule:nonzero;stroke:none"
         id="path22" /><path
         d="M 3328.66,674.211 C 3328.66,404.32 3308.43,105.129 3298.34,0 h 291.1 c 261.8,0 379.06,157.68 379.06,366.922 0,223.387 -137.47,307.289 -309.31,307.289 z m 142.51,-107.16 h 171.86 c 141.5,0 180.92,-106.121 180.92,-198.11 0,-130.39 -61.65,-261.793 -263.83,-261.793 h -108.15 l 19.2,459.903"
         style="fill:#ffffff;fill-opacity:1;fill-rule:nonzero;stroke:none"
         id="path24" /><path
         d="m 3968.5,1881.27 c -152.59,65.32 -428.28,102.98 -670.9,102.98 -393.49,0 -879.75,-129.64 -1221.14,-285.29 -341.41,155.65 -523,269.5 -1112.269,269.5 -497.105,0 -721.117,-99.09 -964.191,-212.84 141.043,34.4 1001.14,246.26 1626.51,-268.83 -182.53,-77.45 -129.68,-43.87 -372.96,-199.34 51.99,39.68 393,119.1 805.33,-240.83 0.85,1.53 431.04,503.22 1265.55,741.15 250.86,71.49 575.41,101.28 644.07,93.5"
         style="fill:#ffffff;fill-opacity:1;fill-rule:nonzero;stroke:none"
         id="path26" /></g></g></svg>
