<svg width="77.88" height="96.84" xmlns="http://www.w3.org/2000/svg">

 <g>
  <title>Layer 1</title>
  <path id="svg_10" fill="#fefefe" d="m3.82,63.23a52.81,52.81 0 0 0 10.18,18.95c7.65,8.94 15.62,11.42 16,11.52l1.64,0.5l-1.25,-1.2c-8.26,-8.25 -13.76,-19.93 -16.39,-34.72l0,0c-2.3,-13.28 -1.41,-26.62 -0.6,-35.5l0.08,-0.88a96.15,96.15 0 0 0 -12.3,9.42a99.94,99.94 0 0 0 -0.45,10.76a76.36,76.36 0 0 0 3.09,21.15z"/>
  <path id="svg_12" fill="#fefefe" d="m31.19,89.3c2.58,5.51 6.12,6.09 6.26,6.12s3.68,-0.61 6.27,-6.13c4.33,-10 6.74,-27.2 7,-49.9a267.19,267.19 0 0 0 -1.61,-34.39c-15.77,4.76 -24.37,10.44 -24.37,10.44s-0.6,12.56 -0.54,19.81c-0.03,31.33 3.8,46.68 6.99,54.05z"/>
  <polygon id="svg_13" fill="#fefefe" points="67.35 0 67.35 0 67.36 0 67.35 0"/>
  <path id="svg_14" fill="#fefefe" d="m43.54,93.88c50.21,-22 23.82,-93.88 23.81,-93.88a44.74,44.74 0 0 0 -9.35,2.17c15.67,65.06 -14.46,91.71 -14.46,91.71z"/>
 </g>
</svg>